<svg width="160" height="118" viewBox="0 0 160 118" fill="none" xmlns="http://www.w3.org/2000/svg">
<path fill-rule="evenodd" clip-rule="evenodd" d="M81.5835 0C81.7022 0 82.1173 0.326188 82.5325 0.741336C83.0663 1.2751 83.2739 1.80886 83.2739 2.6095C83.2442 3.20257 83.0663 4.56663 82.829 5.63415C82.6215 6.70168 82.236 8.24366 81.9987 9.0443C81.7318 9.87459 81.1387 11.5055 80.6346 12.6917C80.1304 13.8482 79.7153 15.0046 79.7153 15.1826C79.7153 15.3901 79.4484 16.2204 79.0925 17.0507C78.7663 17.881 78.1732 19.2451 77.7581 20.105C77.3725 20.9353 77.0463 21.7063 77.0463 21.7953C77.0463 21.8842 76.7498 22.5663 76.4236 23.3373C76.0677 24.1379 75.0891 26.2136 74.2291 28.0225C73.3691 29.8314 72.5684 31.6106 72.4498 32.0257C72.3312 32.4409 71.4119 34.4276 70.4333 36.4737C69.4547 38.5198 68.2981 40.9217 67.8533 41.8113C67.4085 42.7009 66.4299 44.6581 65.6885 46.1111C64.9471 47.5641 63.9685 49.6399 63.5533 50.7074C63.1085 51.7749 62.634 52.7535 62.5154 52.9314C62.3968 53.1093 61.4478 54.8292 60.4396 56.7863C59.4016 58.7435 57.9189 61.6791 57.0885 63.3101C56.2879 64.941 55.2796 66.9278 54.8644 67.7581C54.4493 68.5587 53.9155 69.6559 53.6486 70.1304C53.3817 70.6641 53.2334 71.6427 53.2631 72.5026C53.2927 73.3033 53.5003 74.5784 53.7375 75.3197C53.9451 76.0611 54.4789 77.3955 54.9237 78.2851C55.3686 79.1747 55.9617 80.1532 56.2286 80.4498C56.4954 80.7463 57.3258 81.2504 58.0672 81.5766C59.0754 82.0511 60.0244 82.1993 62.0706 82.1993C63.5237 82.229 65.214 82.0807 65.7775 81.9028C66.3409 81.7249 67.2899 81.5173 67.8533 81.4283C68.4167 81.3394 70.0774 80.776 71.5602 80.2125C73.0133 79.6195 74.7036 78.9374 75.267 78.7002C75.8305 78.4333 77.9656 77.3955 80.0118 76.3873C82.058 75.3494 84.5787 74.015 85.6463 73.4219C86.7138 72.8288 87.9297 71.9689 88.3745 71.5241C88.8194 71.0793 89.3235 70.1304 89.5014 69.389C89.6793 68.6477 90.3614 66.0382 91.0138 63.6066C91.6662 61.1454 92.4076 58.358 92.6448 57.3794C92.8821 56.4008 93.7421 53.5245 94.5131 51.0039C95.3138 48.4834 96.2331 45.5477 96.589 44.4802C96.9152 43.4126 97.4786 41.752 97.8048 40.7735C98.1607 39.7949 99.1393 37.5412 99.9993 35.7324C100.859 33.9235 101.927 31.8181 102.431 31.0175C102.905 30.2169 103.765 29.0307 104.329 28.408C104.892 27.7556 105.782 27.1329 106.256 26.9846C106.731 26.866 107.472 26.8067 107.887 26.8957C108.303 26.9846 108.925 27.3405 109.311 27.6963C109.696 28.0225 110.201 28.9714 110.438 29.8017C110.675 30.6023 110.942 32.085 111.031 33.0636C111.12 34.0718 111.001 36.2662 110.734 38.1047C110.497 39.9135 110.082 42.2265 109.845 43.294C109.607 44.3615 108.955 46.6152 108.392 48.3351C107.828 50.055 106.879 52.4569 106.316 53.6727C105.752 54.8885 104.922 56.6974 104.477 57.6759C104.003 58.6545 103.172 60.1372 102.609 60.9378C102.016 61.7385 101.245 62.8949 100.859 63.4584C100.474 64.0218 99.1096 65.6231 97.8641 66.9871C96.6186 68.3808 94.691 70.1897 93.5641 71.0793C92.4076 71.9985 91.429 73.0364 91.1917 73.5998C90.9842 74.1336 90.6283 75.379 90.4207 76.3576C90.2131 77.3362 89.9166 78.5519 89.7683 79.0264C89.62 79.5009 89.5014 80.2125 89.5014 80.5684C89.5014 81.0725 89.7387 81.3097 90.3021 81.458C90.7766 81.547 92.9414 81.4876 95.1359 81.2801C97.3303 81.0725 100.414 80.776 101.956 80.6277C103.499 80.4794 105.574 80.2125 106.553 80.0643C107.532 79.8864 109.252 79.6491 110.408 79.5009C111.565 79.3526 112.84 79.0857 113.285 78.9078C113.759 78.7299 114.471 78.5816 114.916 78.5816C115.39 78.5816 116.754 78.3147 117.97 77.9885C119.186 77.6327 120.847 77.1879 121.677 76.9507C122.478 76.7134 123.634 76.4466 124.198 76.3279C124.761 76.2093 125.71 75.9425 126.274 75.7052C126.837 75.4383 127.727 75.0825 128.201 74.8749C128.676 74.6377 129.891 74.1039 130.87 73.6888C131.849 73.244 133.183 72.6213 133.836 72.2654C134.488 71.9392 135.882 71.0793 136.949 70.3676C138.017 69.6559 139.025 69.0925 139.173 69.0629C139.322 69.0629 139.707 69.3297 139.974 69.6856C140.3 70.0414 140.419 70.4566 140.271 70.6938C140.152 70.931 139.589 71.4351 139.025 71.8206C138.462 72.2061 136.712 73.2736 135.17 74.1929C133.628 75.0825 131.611 76.0611 130.722 76.3576C129.832 76.6541 128.765 77.01 128.349 77.1582C127.934 77.3362 126.748 77.7513 125.68 78.1368C124.613 78.4926 122.685 79.0857 121.38 79.4416C120.076 79.7974 118.415 80.3015 117.674 80.5091C116.932 80.7463 115.924 80.9539 115.45 80.9539C114.975 80.9539 113.552 81.2208 112.336 81.547C111.12 81.8731 109.637 82.14 109.074 82.14C108.51 82.14 107.561 82.2883 106.998 82.4366C106.434 82.6145 104.685 82.8814 103.143 83.0593C101.601 83.2075 97.9234 83.5337 94.9876 83.7413C92.0517 83.9489 89.3531 84.2751 88.9676 84.453C88.4635 84.7199 88.2856 85.1647 88.1669 86.2025C88.078 87.0032 87.989 88.1004 87.9594 88.6638C87.9297 89.2272 87.989 89.8796 88.1076 90.0575C88.2263 90.2651 88.76 90.6506 89.2642 90.8878C89.798 91.1547 90.8655 91.7181 91.6662 92.1629C92.4373 92.6077 93.5641 93.438 94.1572 94.0014C94.7503 94.5648 95.4917 95.4544 95.7883 95.9289C96.0848 96.433 96.3221 97.3819 96.3221 98.1529C96.3221 99.3094 96.0255 99.9321 94.1869 102.749C93.0007 104.528 91.1324 107.286 90.0352 108.828C88.938 110.37 88.0483 111.734 88.0187 111.853C88.0187 112.001 87.6035 112.713 87.0697 113.484C86.5359 114.284 85.498 115.559 84.7566 116.33C83.6594 117.487 83.2442 117.754 82.3842 117.754C81.7911 117.754 81.1091 117.517 80.8125 117.22C80.3973 116.805 80.3084 116.33 80.3973 115.055C80.4567 114.166 80.7235 112.298 80.9904 110.904C81.287 109.51 81.7022 107.256 81.9691 105.863C82.2359 104.469 82.6808 102.156 82.9773 100.673C83.2739 99.1907 83.7484 96.8185 84.0449 95.3358C84.3118 93.8531 84.4601 92.3111 84.3415 91.8367C84.1932 91.1547 83.5704 90.7395 79.6263 88.8417C77.165 87.6259 74.6739 86.2915 74.1402 85.8764C73.636 85.4612 73.1912 84.8681 73.1912 84.5716C73.1912 84.3047 73.5471 83.7117 73.9326 83.2372C74.585 82.5552 74.9705 82.4069 76.6608 82.2883C77.7877 82.229 80.338 82.0214 82.3842 81.8435C85.2014 81.6063 86.2097 81.3987 86.6249 81.0132C86.8918 80.7463 87.1883 80.1829 87.2773 79.7677C87.3366 79.3526 87.4849 78.2554 87.7221 75.6163L86.7435 75.8535C86.2394 76.0018 85.5276 76.2686 85.2014 76.4466C84.8752 76.5948 83.867 77.1286 82.9773 77.5437C82.0877 77.9885 80.8125 78.7299 80.1601 79.145C79.5077 79.5898 78.6477 80.0643 78.2325 80.2125C77.8174 80.3312 76.7794 80.776 75.9194 81.1615C75.0891 81.5173 74.3181 81.9918 74.2291 82.14C74.1402 82.2883 73.7546 82.4366 73.3395 82.4366C72.9243 82.4366 72.3608 82.5552 72.0643 82.7034C71.7974 82.8517 70.5519 83.2372 69.336 83.593C68.1202 83.9192 66.4299 84.3047 65.6292 84.4233C64.7988 84.5419 62.9306 84.6606 61.4478 84.6606C59.0458 84.6606 58.5713 84.5716 57.0292 83.771C55.843 83.1779 54.9237 82.4069 54.1527 81.3987C53.53 80.5684 52.7589 79.3822 52.4624 78.7299C52.1658 78.0775 51.632 76.921 51.2762 76.1204C50.8314 75.1418 50.4755 74.7267 50.0603 74.7267C49.7341 74.7267 48.9631 75.1418 48.3403 75.6163C47.6583 76.1797 46.5017 76.6838 45.3155 76.9803C44.248 77.2176 41.8459 77.603 39.9776 77.8403C38.1094 78.0478 33.4832 78.374 29.7467 78.5519C25.9805 78.7595 20.9985 79.1747 18.6261 79.5009C16.2537 79.7974 13.3771 80.2719 12.2502 80.5387C11.0937 80.8056 9.16613 81.2801 7.95028 81.6063C6.73443 81.9324 5.13306 82.4069 4.39169 82.6738C3.65031 82.911 2.37515 83.1186 1.57446 83.1482C0.239991 83.1779 0.0917167 83.1186 0.00275185 82.4959C-0.0269031 82.0511 0.180682 81.7249 0.744126 81.4283C1.21861 81.1911 2.70135 80.6573 4.09514 80.2125C5.48892 79.7677 7.26822 79.234 8.09856 79.0264C8.89924 78.8188 10.8565 78.3444 12.3985 78.0182C13.9406 77.692 16.8171 77.2176 18.7743 76.9803C20.7316 76.7431 24.4681 76.4466 27.0777 76.2983C29.6874 76.1797 33.4832 76.0611 35.5294 76.0314C37.5756 76.0314 39.8294 75.8535 40.5707 75.6756C41.3121 75.4977 42.2907 75.3197 42.7949 75.3197C43.2693 75.3197 44.6038 74.8453 45.7604 74.3115C47.0059 73.6888 48.3403 72.7695 50.3569 70.5752V67.8174C50.3569 66.3347 50.5051 64.2293 50.6831 63.1618C50.861 62.0943 51.2465 59.9592 51.6024 58.4173C51.9286 56.8753 52.4327 54.7402 52.7293 53.6727C53.0258 52.6052 53.5596 50.826 53.9155 49.6695C54.2713 48.513 54.7162 47.06 54.8941 46.4076C55.0424 45.7553 55.843 43.4719 56.6437 41.3665C57.4741 39.2612 58.4527 36.7703 58.8678 35.8807C59.283 34.9911 59.9947 33.4491 60.4396 32.4705C60.8844 31.4919 62.0113 29.1197 62.9306 27.1922C63.8499 25.2944 64.5913 23.6634 64.5913 23.5745C64.5913 23.4855 65.0064 22.7145 65.5106 21.8546C66.0147 21.0243 66.6671 19.8975 66.934 19.423C67.2009 18.9485 68.2685 17.1397 69.2767 15.4198C70.3147 13.6999 71.2933 12.0393 71.5009 11.7131C71.6788 11.3869 72.6574 9.84494 73.6657 8.30296C74.6739 6.76098 76.2753 4.56663 77.2539 3.41015C78.2029 2.25366 79.5373 1.03787 80.1898 0.682029C80.8125 0.296534 81.4353 0 81.5539 0L81.5835 0ZM77.076 7.97677C76.3346 8.98499 75.2077 10.4973 74.5257 11.3573C73.8436 12.2172 72.6574 14.1743 71.8271 15.7163C71.0264 17.2583 69.9885 19.1265 69.514 19.8678C69.0395 20.6091 67.8236 22.8628 66.7561 24.9089C65.7181 26.955 64.7692 28.7342 64.6506 28.9121C64.5319 29.09 64.1761 29.861 63.8795 30.6913C63.583 31.4919 62.812 33.3008 62.1892 34.6945C61.5368 36.0882 60.5285 38.4309 59.9651 39.8839C59.372 41.3369 58.6899 43.0864 58.3934 43.7388C58.1265 44.3912 57.4741 46.2001 56.9699 47.742C56.4658 49.284 55.7541 51.6859 55.4279 53.0797C55.1017 54.4734 54.8348 55.9264 54.8348 56.3415C54.8348 56.7567 54.6272 57.6759 54.3603 58.4173C54.1231 59.1586 53.8562 60.5227 53.7672 61.4419C53.6782 62.8356 53.7375 63.1618 54.0934 63.1618C54.3306 63.1618 54.5382 63.0432 54.5382 62.8653C54.5382 62.6874 54.9534 61.7385 55.4279 60.7006C55.932 59.6924 56.8217 57.9725 57.4444 56.8753C58.0375 55.7781 58.9865 54.0286 59.5499 53.0203C60.1134 51.9825 61.1216 50.0253 61.8333 48.6316C62.5154 47.2379 63.8202 44.5691 64.7099 42.7009C65.5995 40.8328 67.5567 36.7999 69.0395 33.716C70.5222 30.6617 71.7381 28.0818 71.7381 27.9632C71.7678 27.8149 72.005 27.1922 72.3312 26.5398C72.6574 25.8874 72.8946 25.2647 72.9243 25.1165C72.9243 24.9978 73.3988 23.871 73.9919 22.5959C74.585 21.3505 75.3263 19.7195 75.6525 18.9782C75.9788 18.2369 76.3939 17.3176 76.6015 16.9025C76.8091 16.4873 77.2836 15.3012 77.6691 14.2336C78.0249 13.1661 78.5291 11.8614 78.7367 11.3276C78.9739 10.8235 79.1518 10.1415 79.1518 9.84494C79.1518 9.57806 79.3594 8.80707 79.6263 8.15469C79.8932 7.50232 80.1601 6.55341 80.1898 6.07895C80.2491 5.6045 80.338 4.95212 80.427 4.65559C80.4863 4.38871 80.4566 4.15148 80.338 4.15148C80.1898 4.15148 79.7153 4.59628 79.2408 5.13004C78.796 5.69346 77.8174 6.96856 77.076 7.97677ZM103.113 34.9911C102.194 36.8592 101.008 39.528 100.503 40.9217C99.9993 42.3155 99.4655 43.7092 99.3172 44.0354C99.1689 44.3615 98.5165 46.2297 97.8641 48.1868C97.2414 50.144 96.411 53.0203 96.0552 54.5623C95.6993 56.1043 95.1359 58.1207 94.869 59.0103C94.5724 59.8999 94.0979 61.6495 93.831 62.8653C93.5641 64.0811 93.2083 65.5044 93.06 65.9789C92.9117 66.4533 92.7931 67.1057 92.7931 67.4023C92.7931 67.6691 92.9117 67.9064 93.0897 67.9064C93.2676 67.9064 93.6531 67.7878 93.9793 67.6098C94.3055 67.4319 95.9365 65.6231 97.5972 63.5473C99.2282 61.4419 100.919 59.2179 101.334 58.5655C101.749 57.9132 102.55 56.4601 103.113 55.3037C103.676 54.1472 104.24 52.9017 104.388 52.4866C104.507 52.0714 105.011 50.6777 105.485 49.373C105.96 48.0682 106.583 46.1407 106.879 45.0732C107.176 44.0057 107.532 42.4044 107.65 41.5148C107.799 40.6252 108.065 38.757 108.243 37.3633C108.421 35.9696 108.481 33.9235 108.392 32.767C108.273 31.3832 108.036 30.5134 107.68 30.1575C107.413 29.861 107.028 29.6238 106.82 29.6534C106.642 29.6534 106.108 30.0982 105.634 30.632C105.189 31.1658 104.032 33.1229 103.113 34.9911ZM78.8553 84.9571C78.8553 85.0461 79.2112 85.4315 79.656 85.8467C80.1305 86.2322 80.7532 86.6473 81.0794 86.7363C81.4056 86.8549 82.147 87.1218 82.7104 87.3887C83.2739 87.6556 83.9856 87.9817 84.2525 88.1004C84.549 88.2486 84.8456 88.3672 84.9346 88.3672C85.0235 88.3672 85.2904 87.6556 85.5573 86.8253C85.7945 85.9653 85.9428 85.0757 85.8539 84.8978C85.7352 84.6309 84.9346 84.5123 83.2146 84.5716C81.8801 84.5716 80.338 84.6606 79.8042 84.7199C79.3001 84.7495 78.8553 84.8681 78.8553 84.9571ZM86.447 96.5219C86.1801 98.0046 85.8242 99.6059 85.6759 100.08C85.5276 100.555 85.1421 102.838 84.7863 105.121C84.4304 107.405 83.9856 110.133 83.7484 111.2C83.5408 112.268 83.4221 113.217 83.4815 113.365C83.5408 113.484 84.4304 112.475 85.4387 111.111C86.4766 109.777 88.1076 107.434 89.0862 105.922C90.0649 104.439 91.5773 102.215 92.4373 101.059C93.2973 99.8728 93.9793 98.5977 93.9793 98.2418C93.9793 97.8563 93.4752 96.9964 92.8524 96.3144C92.2593 95.6323 90.9545 94.5648 89.9759 93.9421C88.9973 93.3194 88.0483 92.8153 87.8407 92.8153C87.6332 92.8153 87.3366 93.0525 87.1883 93.349C87.0401 93.6159 86.7139 95.0393 86.447 96.5219ZM148.248 42.7009C149.227 42.7009 149.879 42.9382 150.709 43.5312C151.332 43.976 152.103 44.7767 152.429 45.3105C152.815 45.9925 153.052 47.0897 153.171 49.1654C153.289 50.737 153.497 52.279 153.615 52.5755C153.853 53.0203 153.942 53.05 154.624 52.6348C155.039 52.3976 155.721 52.19 156.166 52.19C156.64 52.19 157.263 52.368 157.589 52.5755C157.915 52.8128 158.479 53.4355 158.835 53.9989C159.339 54.7699 159.487 55.4519 159.487 56.7863C159.487 58.3283 159.339 58.7435 158.508 59.8999C157.975 60.6413 157.026 61.5902 156.373 62.035C155.751 62.4798 154.624 63.0432 153.882 63.3101C153.141 63.5473 152.251 63.9625 151.866 64.1997C151.51 64.4369 150.917 65.2079 150.591 65.9196C150.235 66.6016 149.79 67.254 149.612 67.3726C149.434 67.4912 148.752 67.6098 148.1 67.6098C147.388 67.6395 146.735 67.4616 146.469 67.165C146.231 66.8982 145.816 66.6906 145.579 66.7202C145.342 66.7202 144.689 67.0761 144.156 67.4616C143.592 67.9064 142.88 68.1732 142.406 68.1436C141.842 68.0843 141.546 67.8767 141.487 67.4616C141.427 67.1354 141.605 66.4237 141.842 65.9196C142.109 65.3858 142.317 64.8817 142.317 64.7928C142.317 64.7038 141.546 64.4962 140.597 64.348C139.678 64.17 138.373 63.7845 137.75 63.5177C137.068 63.2211 136.149 62.4501 135.585 61.6791C134.785 60.6116 134.577 60.0779 134.607 59.0103C134.607 58.2097 134.844 57.2904 135.2 56.727C135.526 56.1933 136.119 55.6298 136.534 55.4519C136.949 55.274 138.017 55.1554 138.907 55.1554C139.796 55.1554 140.745 55.0961 140.982 55.0071C141.22 54.9182 141.546 54.3547 141.694 53.7617C141.842 53.139 142.08 51.8342 142.198 50.8556C142.317 49.8771 142.584 48.7502 142.821 48.3351C143.029 47.92 143.207 47.4158 143.207 47.2379C143.207 47.0303 143.533 46.289 143.918 45.607C144.333 44.8953 145.164 43.976 145.787 43.5016C146.617 42.9085 147.269 42.7009 148.248 42.7009ZM144.6 47.5048C144.304 48.3648 143.918 49.9957 143.77 51.1522C143.592 52.3087 143.355 53.7024 143.236 54.2658C143.088 54.8885 143.088 55.5409 143.296 55.8967C143.444 56.2229 143.978 56.9346 144.452 57.4684C144.897 57.9725 145.282 58.5952 145.282 58.8028C145.282 58.9807 145.164 59.3365 145.045 59.5737C144.927 59.8406 144.571 59.8999 144.007 59.7813C143.562 59.6924 142.643 59.04 141.931 58.3283C140.982 57.3497 140.389 56.9939 139.411 56.8456C138.729 56.727 137.839 56.7567 137.424 56.9346C137.009 57.1125 136.534 57.587 136.356 58.0614C136.149 58.6248 136.149 59.1883 136.356 59.9889C136.623 60.8489 136.979 61.264 138.017 61.8274C138.936 62.3315 139.796 62.5687 140.745 62.5391C141.724 62.5391 142.613 62.2722 143.533 61.7385C144.304 61.2937 145.579 60.5523 146.35 60.0779C147.151 59.6034 148.396 58.7435 149.108 58.1504C149.849 57.5573 150.65 56.5491 150.946 55.8967C151.213 55.2444 151.599 53.7913 151.806 52.6348C152.044 51.0929 152.073 50.0847 151.836 48.7799C151.658 47.8013 151.243 46.5262 150.946 45.9628C150.65 45.3994 150.086 44.747 149.701 44.5691C149.315 44.3615 148.544 44.1836 148.04 44.1836C147.388 44.1836 146.765 44.4802 146.113 45.0436C145.52 45.5773 144.897 46.5855 144.6 47.5048ZM151.362 59.0103C151.065 59.5738 150.531 60.404 150.146 60.8785C149.76 61.3233 149.434 61.7978 149.434 61.9757C149.434 62.1536 149.879 62.3315 150.383 62.4205C151.035 62.5391 151.925 62.3612 152.993 61.8867C153.882 61.5309 155.069 60.9675 155.573 60.7006C156.136 60.404 156.818 59.6924 157.144 59.0103C157.471 58.358 157.737 57.2608 157.737 56.5788C157.737 55.8671 157.53 55.0071 157.293 54.6513C157.055 54.2658 156.611 53.9693 156.314 53.9693C155.988 53.9693 154.891 54.8589 153.823 55.9857C152.755 57.0829 151.658 58.4469 151.362 59.0103ZM147.536 65.1783C147.595 65.3562 147.922 65.5341 148.248 65.5341C148.574 65.5341 148.841 65.3265 148.871 65.0893C148.871 64.8521 148.604 64.5259 148.278 64.3776C147.862 64.1404 147.684 64.17 147.566 64.4369C147.507 64.6148 147.507 64.9707 147.536 65.1783Z" fill="white" fill-opacity="0.92"/>
</svg>
